STARTFONT 2.1
COMMENT
COMMENT Converted from OpenType font "CircularStd-Book.otf" by "otf2bdf 3.0".
COMMENT
FONT -FreeType-Circular Std Book-Medium-R-Normal--11-80-100-100-P-57-ISO10646-1
SIZE 8 100 100
FONTBOUNDINGBOX 17 13 0 -3
STARTPROPERTIES 19
FOUNDRY "FreeType"
FAMILY_NAME "Circular Std Book"
WEIGHT_NAME "Medium"
SLANT "R"
SETWIDTH_NAME "Normal"
ADD_STYLE_NAME ""
PIXEL_SIZE 11
POINT_SIZE 80
RESOLUTION_X 100
RESOLUTION_Y 100
SPACING "P"
AVERAGE_WIDTH 57
CHARSET_REGISTRY "ISO10646"
CHARSET_ENCODING "1"
FONT_ASCENT 10
FONT_DESCENT 2
COPYRIGHT "Generated in 2013 by FontLab Studio. Copyright info pending."
_OTF_FONTFILE "CircularStd-Book.otf"
_OTF_PSNAME "CircularStd-Book"
ENDPROPERTIES
CHARS 332
STARTCHAR 0000
ENCODING 0
SWIDTH 0 0
DWIDTH 0 0
BBX 0 0 0 0
BITMAP
ENDCHAR
STARTCHAR 000D
ENCODING 13
SWIDTH 270 0
DWIDTH 3 0
BBX 0 0 0 0
BITMAP
ENDCHAR
STARTCHAR 0020
ENCODING 32
SWIDTH 270 0
DWIDTH 3 0
BBX 0 0 0 0
BITMAP
ENDCHAR
STARTCHAR 0021
ENCODING 33
SWIDTH 270 0
DWIDTH 3 0
BBX 1 8 1 0
BITMAP
80
80
80
80
80
80
00
80
ENDCHAR
STARTCHAR 0022
ENCODING 34
SWIDTH 360 0
DWIDTH 4 0
BBX 4 3 0 5
BITMAP
F0
50
A0
ENDCHAR
STARTCHAR 0023
ENCODING 35
SWIDTH 720 0
DWIDTH 8 0
BBX 7 8 1 0
BITMAP
28
28
FE
48
48
FC
50
50
ENDCHAR
STARTCHAR 0024
ENCODING 36
SWIDTH 630 0
DWIDTH 7 0
BBX 5 10 1 -1
BITMAP
20
70
B8
A0
E0
38
A8
A8
70
20
ENDCHAR
STARTCHAR 0025
ENCODING 37
SWIDTH 810 0
DWIDTH 9 0
BBX 8 8 1 0
BITMAP
E4
A4
A8
D0
16
2A
49
46
ENDCHAR
STARTCHAR 0026
ENCODING 38
SWIDTH 720 0
DWIDTH 8 0
BBX 6 8 1 0
BITMAP
70
90
90
60
E4
9C
98
F4
ENDCHAR
STARTCHAR 0027
ENCODING 39
SWIDTH 180 0
DWIDTH 2 0
BBX 2 3 0 5
BITMAP
C0
40
80
ENDCHAR
STARTCHAR 0028
ENCODING 40
SWIDTH 270 0
DWIDTH 3 0
BBX 2 11 1 -2
BITMAP
40
40
80
80
80
80
80
80
80
40
40
ENDCHAR
STARTCHAR 0029
ENCODING 41
SWIDTH 270 0
DWIDTH 3 0
BBX 3 11 0 -2
BITMAP
80
40
40
20
20
20
20
20
40
40
80
ENDCHAR
STARTCHAR 002A
ENCODING 42
SWIDTH 450 0
DWIDTH 5 0
BBX 4 4 0 4
BITMAP
20
F0
20
50
ENDCHAR
STARTCHAR 002B
ENCODING 43
SWIDTH 540 0
DWIDTH 6 0
BBX 5 5 1 1
BITMAP
20
20
F8
20
20
ENDCHAR
STARTCHAR 002C
ENCODING 44
SWIDTH 270 0
DWIDTH 3 0
BBX 1 3 1 -2
BITMAP
80
80
80
ENDCHAR
STARTCHAR 002D
ENCODING 45
SWIDTH 360 0
DWIDTH 4 0
BBX 4 1 0 3
BITMAP
F0
ENDCHAR
STARTCHAR 002E
ENCODING 46
SWIDTH 270 0
DWIDTH 3 0
BBX 1 1 1 0
BITMAP
80
ENDCHAR
STARTCHAR 002F
ENCODING 47
SWIDTH 450 0
DWIDTH 5 0
BBX 5 8 0 0
BITMAP
08
10
10
20
20
40
40
80
ENDCHAR
STARTCHAR 0030
ENCODING 48
SWIDTH 630 0
DWIDTH 7 0
BBX 5 8 1 0
BITMAP
70
88
88
88
88
88
88
70
ENDCHAR
STARTCHAR 0031
ENCODING 49
SWIDTH 360 0
DWIDTH 4 0
BBX 3 8 0 0
BITMAP
20
E0
20
20
20
20
20
20
ENDCHAR
STARTCHAR 0032
ENCODING 50
SWIDTH 540 0
DWIDTH 6 0
BBX 5 8 0 0
BITMAP
78
48
C8
08
10
60
40
F8
ENDCHAR
STARTCHAR 0033
ENCODING 51
SWIDTH 540 0
DWIDTH 6 0
BBX 5 8 1 0
BITMAP
F8
10
20
70
18
08
98
F0
ENDCHAR
STARTCHAR 0034
ENCODING 52
SWIDTH 540 0
DWIDTH 6 0
BBX 6 8 0 0
BITMAP
18
38
28
48
48
FC
08
08
ENDCHAR
STARTCHAR 0035
ENCODING 53
SWIDTH 540 0
DWIDTH 6 0
BBX 5 8 1 0
BITMAP
F0
80
80
F0
18
08
90
F0
ENDCHAR
STARTCHAR 0036
ENCODING 54
SWIDTH 540 0
DWIDTH 6 0
BBX 5 8 1 0
BITMAP
78
C0
80
F0
88
88
88
70
ENDCHAR
STARTCHAR 0037
ENCODING 55
SWIDTH 450 0
DWIDTH 5 0
BBX 5 8 0 0
BITMAP
F8
08
10
20
20
20
40
40
ENDCHAR
STARTCHAR 0038
ENCODING 56
SWIDTH 540 0
DWIDTH 6 0
BBX 6 8 0 0
BITMAP
78
48
48
30
48
C4
4C
78
ENDCHAR
STARTCHAR 0039
ENCODING 57
SWIDTH 540 0
DWIDTH 6 0
BBX 6 8 0 0
BITMAP
78
4C
C4
4C
74
04
08
70
ENDCHAR
STARTCHAR 003A
ENCODING 58
SWIDTH 270 0
DWIDTH 3 0
BBX 1 6 1 0
BITMAP
80
80
00
00
80
80
ENDCHAR
STARTCHAR 003B
ENCODING 59
SWIDTH 270 0
DWIDTH 3 0
BBX 1 7 1 -1
BITMAP
80
80
00
00
00
80
80
ENDCHAR
STARTCHAR 003C
ENCODING 60
SWIDTH 450 0
DWIDTH 5 0
BBX 5 6 0 0
BITMAP
08
30
C0
C0
30
08
ENDCHAR
STARTCHAR 003D
ENCODING 61
SWIDTH 630 0
DWIDTH 7 0
BBX 5 3 1 2
BITMAP
F8
00
F8
ENDCHAR
STARTCHAR 003E
ENCODING 62
SWIDTH 450 0
DWIDTH 5 0
BBX 5 6 0 0
BITMAP
80
60
18
18
60
80
ENDCHAR
STARTCHAR 003F
ENCODING 63
SWIDTH 540 0
DWIDTH 6 0
BBX 5 8 0 0
BITMAP
70
48
88
18
30
20
00
20
ENDCHAR
STARTCHAR 0040
ENCODING 64
SWIDTH 810 0
DWIDTH 9 0
BBX 9 9 0 -1
BITMAP
1E00
2100
5E80
5280
A480
5500
5B00
2000
1E00
ENDCHAR
STARTCHAR 0041
ENCODING 65
SWIDTH 720 0
DWIDTH 8 0
BBX 7 8 0 0
BITMAP
18
18
28
24
64
7E
42
82
ENDCHAR
STARTCHAR 0042
ENCODING 66
SWIDTH 630 0
DWIDTH 7 0
BBX 5 8 1 0
BITMAP
F0
88
88
F0
88
88
88
F0
ENDCHAR
STARTCHAR 0043
ENCODING 67
SWIDTH 720 0
DWIDTH 8 0
BBX 7 8 1 0
BITMAP
78
C4
82
80
80
82
C4
78
ENDCHAR
STARTCHAR 0044
ENCODING 68
SWIDTH 720 0
DWIDTH 8 0
BBX 6 8 1 0
BITMAP
F8
8C
84
84
84
84
8C
F8
ENDCHAR
STARTCHAR 0045
ENCODING 69
SWIDTH 540 0
DWIDTH 6 0
BBX 5 8 1 0
BITMAP
F8
80
80
80
F0
80
80
F8
ENDCHAR
STARTCHAR 0046
ENCODING 70
SWIDTH 540 0
DWIDTH 6 0
BBX 5 8 1 0
BITMAP
F8
80
80
80
F0
80
80
80
ENDCHAR
STARTCHAR 0047
ENCODING 71
SWIDTH 810 0
DWIDTH 9 0
BBX 7 8 1 0
BITMAP
78
C4
80
80
9E
82
C6
7A
ENDCHAR
STARTCHAR 0048
ENCODING 72
SWIDTH 720 0
DWIDTH 8 0
BBX 6 8 1 0
BITMAP
84
84
84
FC
84
84
84
84
ENDCHAR
STARTCHAR 0049
ENCODING 73
SWIDTH 270 0
DWIDTH 3 0
BBX 1 8 1 0
BITMAP
80
80
80
80
80
80
80
80
ENDCHAR
STARTCHAR 004A
ENCODING 74
SWIDTH 540 0
DWIDTH 6 0
BBX 5 8 0 0
BITMAP
08
08
08
08
08
88
C8
70
ENDCHAR
STARTCHAR 004B
ENCODING 75
SWIDTH 630 0
DWIDTH 7 0
BBX 6 8 1 0
BITMAP
8C
98
90
A0
F0
90
88
84
ENDCHAR
STARTCHAR 004C
ENCODING 76
SWIDTH 540 0
DWIDTH 6 0
BBX 5 8 1 0
BITMAP
80
80
80
80
80
80
80
F8
ENDCHAR
STARTCHAR 004D
ENCODING 77
SWIDTH 990 0
DWIDTH 11 0
BBX 9 8 1 0
BITMAP
C180
C380
E380
A380
A580
9580
9980
8980
ENDCHAR
STARTCHAR 004E
ENCODING 78
SWIDTH 720 0
DWIDTH 8 0
BBX 6 8 1 0
BITMAP
C4
C4
A4
B4
94
8C
8C
84
ENDCHAR
STARTCHAR 004F
ENCODING 79
SWIDTH 810 0
DWIDTH 9 0
BBX 7 8 1 0
BITMAP
78
C6
82
82
82
82
C6
78
ENDCHAR
STARTCHAR 0050
ENCODING 80
SWIDTH 630 0
DWIDTH 7 0
BBX 5 8 1 0
BITMAP
F0
88
88
88
F0
80
80
80
ENDCHAR
STARTCHAR 0051
ENCODING 81
SWIDTH 810 0
DWIDTH 9 0
BBX 7 9 1 -1
BITMAP
78
C6
82
82
82
8A
C6
7A
02
ENDCHAR
STARTCHAR 0052
ENCODING 82
SWIDTH 630 0
DWIDTH 7 0
BBX 5 8 1 0
BITMAP
F0
88
88
88
F0
90
90
88
ENDCHAR
STARTCHAR 0053
ENCODING 83
SWIDTH 630 0
DWIDTH 7 0
BBX 5 8 1 0
BITMAP
70
88
80
E0
38
08
88
70
ENDCHAR
STARTCHAR 0054
ENCODING 84
SWIDTH 630 0
DWIDTH 7 0
BBX 6 8 0 0
BITMAP
FC
10
10
10
10
10
10
10
ENDCHAR
STARTCHAR 0055
ENCODING 85
SWIDTH 630 0
DWIDTH 7 0
BBX 6 8 1 0
BITMAP
8C
8C
8C
8C
8C
8C
88
70
ENDCHAR
STARTCHAR 0056
ENCODING 86
SWIDTH 630 0
DWIDTH 7 0
BBX 7 8 0 0
BITMAP
82
46
44
64
28
28
18
10
ENDCHAR
STARTCHAR 0057
ENCODING 87
SWIDTH 990 0
DWIDTH 11 0
BBX 11 8 0 0
BITMAP
8420
4660
4A40
4A40
6940
3180
3180
3180
ENDCHAR
STARTCHAR 0058
ENCODING 88
SWIDTH 630 0
DWIDTH 7 0
BBX 6 8 0 0
BITMAP
C4
4C
28
30
30
28
4C
C4
ENDCHAR
STARTCHAR 0059
ENCODING 89
SWIDTH 630 0
DWIDTH 7 0
BBX 6 8 0 0
BITMAP
C4
44
28
38
10
10
10
10
ENDCHAR
STARTCHAR 005A
ENCODING 90
SWIDTH 630 0
DWIDTH 7 0
BBX 7 8 0 0
BITMAP
7E
04
08
18
30
20
40
FE
ENDCHAR
STARTCHAR 005B
ENCODING 91
SWIDTH 270 0
DWIDTH 3 0
BBX 2 11 1 -2
BITMAP
C0
80
80
80
80
80
80
80
80
80
C0
ENDCHAR
STARTCHAR 005C
ENCODING 92
SWIDTH 450 0
DWIDTH 5 0
BBX 5 8 0 0
BITMAP
80
40
40
20
20
10
10
08
ENDCHAR
STARTCHAR 005D
ENCODING 93
SWIDTH 270 0
DWIDTH 3 0
BBX 2 11 0 -2
BITMAP
C0
40
40
40
40
40
40
40
40
40
C0
ENDCHAR
STARTCHAR 005E
ENCODING 94
SWIDTH 540 0
DWIDTH 6 0
BBX 4 4 1 4
BITMAP
60
60
90
90
ENDCHAR
STARTCHAR 005F
ENCODING 95
SWIDTH 540 0
DWIDTH 6 0
BBX 6 1 0 -1
BITMAP
FC
ENDCHAR
STARTCHAR 0060
ENCODING 96
SWIDTH 270 0
DWIDTH 3 0
BBX 1 2 1 6
BITMAP
80
80
ENDCHAR
STARTCHAR 0061
ENCODING 97
SWIDTH 540 0
DWIDTH 6 0
BBX 4 6 1 0
BITMAP
E0
90
30
D0
90
F0
ENDCHAR
STARTCHAR 0062
ENCODING 98
SWIDTH 630 0
DWIDTH 7 0
BBX 5 8 1 0
BITMAP
80
80
F0
88
88
88
88
F0
ENDCHAR
STARTCHAR 0063
ENCODING 99
SWIDTH 540 0
DWIDTH 6 0
BBX 5 6 0 0
BITMAP
38
48
C0
C0
48
38
ENDCHAR
STARTCHAR 0064
ENCODING 100
SWIDTH 630 0
DWIDTH 7 0
BBX 6 8 0 0
BITMAP
04
04
34
4C
C4
C4
4C
74
ENDCHAR
STARTCHAR 0065
ENCODING 101
SWIDTH 540 0
DWIDTH 6 0
BBX 6 6 0 0
BITMAP
38
48
FC
40
48
38
ENDCHAR
STARTCHAR 0066
ENCODING 102
SWIDTH 360 0
DWIDTH 4 0
BBX 4 9 0 0
BITMAP
30
40
40
F0
40
40
40
40
40
ENDCHAR
STARTCHAR 0067
ENCODING 103
SWIDTH 540 0
DWIDTH 6 0
BBX 5 9 1 -3
BITMAP
68
98
88
88
98
E8
88
90
F0
ENDCHAR
STARTCHAR 0068
ENCODING 104
SWIDTH 540 0
DWIDTH 6 0
BBX 4 8 1 0
BITMAP
80
80
F0
90
90
90
90
90
ENDCHAR
STARTCHAR 0069
ENCODING 105
SWIDTH 270 0
DWIDTH 3 0
BBX 1 9 1 0
BITMAP
80
80
00
80
80
80
80
80
80
ENDCHAR
STARTCHAR 006A
ENCODING 106
SWIDTH 270 0
DWIDTH 3 0
BBX 2 12 0 -3
BITMAP
40
40
00
40
40
40
40
40
40
40
40
C0
ENDCHAR
STARTCHAR 006B
ENCODING 107
SWIDTH 540 0
DWIDTH 6 0
BBX 4 8 1 0
BITMAP
80
80
90
A0
C0
E0
B0
90
ENDCHAR
STARTCHAR 006C
ENCODING 108
SWIDTH 270 0
DWIDTH 3 0
BBX 1 8 1 0
BITMAP
80
80
80
80
80
80
80
80
ENDCHAR
STARTCHAR 006D
ENCODING 109
SWIDTH 900 0
DWIDTH 10 0
BBX 8 6 1 0
BITMAP
F6
99
91
91
91
91
ENDCHAR
STARTCHAR 006E
ENCODING 110
SWIDTH 540 0
DWIDTH 6 0
BBX 4 6 1 0
BITMAP
F0
90
90
90
90
90
ENDCHAR
STARTCHAR 006F
ENCODING 111
SWIDTH 540 0
DWIDTH 6 0
BBX 6 6 0 0
BITMAP
38
4C
C4
C4
4C
38
ENDCHAR
STARTCHAR 0070
ENCODING 112
SWIDTH 630 0
DWIDTH 7 0
BBX 5 9 1 -3
BITMAP
F0
88
88
88
88
F0
80
80
80
ENDCHAR
STARTCHAR 0071
ENCODING 113
SWIDTH 540 0
DWIDTH 6 0
BBX 6 9 0 -3
BITMAP
74
4C
C4
C4
4C
34
04
04
04
ENDCHAR
STARTCHAR 0072
ENCODING 114
SWIDTH 360 0
DWIDTH 4 0
BBX 3 6 1 0
BITMAP
E0
80
80
80
80
80
ENDCHAR
STARTCHAR 0073
ENCODING 115
SWIDTH 450 0
DWIDTH 5 0
BBX 5 6 0 0
BITMAP
70
50
60
30
98
70
ENDCHAR
STARTCHAR 0074
ENCODING 116
SWIDTH 360 0
DWIDTH 4 0
BBX 3 8 0 0
BITMAP
40
40
E0
40
40
40
40
20
ENDCHAR
STARTCHAR 0075
ENCODING 117
SWIDTH 540 0
DWIDTH 6 0
BBX 4 6 1 0
BITMAP
90
90
90
90
90
F0
ENDCHAR
STARTCHAR 0076
ENCODING 118
SWIDTH 540 0
DWIDTH 6 0
BBX 5 6 0 0
BITMAP
88
48
48
50
30
30
ENDCHAR
STARTCHAR 0077
ENCODING 119
SWIDTH 810 0
DWIDTH 9 0
BBX 8 6 0 0
BITMAP
89
59
55
55
66
22
ENDCHAR
STARTCHAR 0078
ENCODING 120
SWIDTH 450 0
DWIDTH 5 0
BBX 5 6 0 0
BITMAP
C8
50
30
30
50
C8
ENDCHAR
STARTCHAR 0079
ENCODING 121
SWIDTH 540 0
DWIDTH 6 0
BBX 5 9 0 -3
BITMAP
88
48
48
30
30
30
20
20
40
ENDCHAR
STARTCHAR 007A
ENCODING 122
SWIDTH 450 0
DWIDTH 5 0
BBX 5 6 0 0
BITMAP
F8
10
30
20
40
F8
ENDCHAR
STARTCHAR 007B
ENCODING 123
SWIDTH 360 0
DWIDTH 4 0
BBX 4 11 0 -2
BITMAP
30
20
20
20
20
C0
20
20
20
20
30
ENDCHAR
STARTCHAR 007C
ENCODING 124
SWIDTH 270 0
DWIDTH 3 0
BBX 1 11 1 -2
BITMAP
80
80
80
80
80
80
80
80
80
80
80
ENDCHAR
STARTCHAR 007D
ENCODING 125
SWIDTH 360 0
DWIDTH 4 0
BBX 3 11 0 -2
BITMAP
80
40
40
40
40
20
40
40
40
40
80
ENDCHAR
STARTCHAR 007E
ENCODING 126
SWIDTH 540 0
DWIDTH 6 0
BBX 4 2 1 2
BITMAP
C0
30
ENDCHAR
STARTCHAR 00A0
ENCODING 160
SWIDTH 270 0
DWIDTH 3 0
BBX 0 0 0 0
BITMAP
ENDCHAR
STARTCHAR 00A1
ENCODING 161
SWIDTH 270 0
DWIDTH 3 0
BBX 1 8 1 -2
BITMAP
80
00
80
80
80
80
80
80
ENDCHAR
STARTCHAR 00A2
ENCODING 162
SWIDTH 540 0
DWIDTH 6 0
BBX 4 8 1 0
BITMAP
40
70
D0
C0
C0
D0
60
40
ENDCHAR
STARTCHAR 00A3
ENCODING 163
SWIDTH 630 0
DWIDTH 7 0
BBX 5 8 1 0
BITMAP
70
D8
80
C0
F0
40
C8
F8
ENDCHAR
STARTCHAR 00A4
ENCODING 164
SWIDTH 540 0
DWIDTH 6 0
BBX 6 6 0 0
BITMAP
84
7C
44
44
7C
84
ENDCHAR
STARTCHAR 00A5
ENCODING 165
SWIDTH 540 0
DWIDTH 6 0
BBX 5 8 1 0
BITMAP
88
90
50
F8
20
F8
20
20
ENDCHAR
STARTCHAR 00A6
ENCODING 166
SWIDTH 270 0
DWIDTH 3 0
BBX 1 11 1 -2
BITMAP
80
80
80
80
80
00
80
80
80
80
80
ENDCHAR
STARTCHAR 00A7
ENCODING 167
SWIDTH 540 0
DWIDTH 6 0
BBX 4 10 1 -2
BITMAP
70
90
80
60
90
D0
60
10
90
70
ENDCHAR
STARTCHAR 00A8
ENCODING 168
SWIDTH 360 0
DWIDTH 4 0
BBX 4 2 0 6
BITMAP
50
D0
ENDCHAR
STARTCHAR 00A9
ENCODING 169
SWIDTH 810 0
DWIDTH 9 0
BBX 9 8 0 0
BITMAP
1E00
6100
5D00
A080
A080
5D00
6100
1E00
ENDCHAR
STARTCHAR 00AA
ENCODING 170
SWIDTH 450 0
DWIDTH 5 0
BBX 3 4 1 4
BITMAP
E0
20
E0
E0
ENDCHAR
STARTCHAR 00AB
ENCODING 171
SWIDTH 450 0
DWIDTH 5 0
BBX 5 5 0 1
BITMAP
28
50
B0
50
28
ENDCHAR
STARTCHAR 00AC
ENCODING 172
SWIDTH 540 0
DWIDTH 6 0
BBX 6 3 0 2
BITMAP
FC
04
04
ENDCHAR
STARTCHAR 00AD
ENCODING 173
SWIDTH 360 0
DWIDTH 4 0
BBX 4 1 0 3
BITMAP
F0
ENDCHAR
STARTCHAR 00AE
ENCODING 174
SWIDTH 810 0
DWIDTH 9 0
BBX 9 8 0 0
BITMAP
1C00
6300
5D00
9480
9C80
5500
4100
3E00
ENDCHAR
STARTCHAR 00AF
ENCODING 175
SWIDTH 360 0
DWIDTH 4 0
BBX 3 1 0 7
BITMAP
E0
ENDCHAR
STARTCHAR 00B0
ENCODING 176
SWIDTH 360 0
DWIDTH 4 0
BBX 4 4 0 4
BITMAP
60
90
90
60
ENDCHAR
STARTCHAR 00B1
ENCODING 177
SWIDTH 540 0
DWIDTH 6 0
BBX 5 5 1 1
BITMAP
20
20
F8
20
F8
ENDCHAR
STARTCHAR 00B2
ENCODING 178
SWIDTH 360 0
DWIDTH 4 0
BBX 3 4 1 4
BITMAP
C0
A0
C0
E0
ENDCHAR
STARTCHAR 00B3
ENCODING 179
SWIDTH 450 0
DWIDTH 5 0
BBX 3 4 1 4
BITMAP
E0
40
20
E0
ENDCHAR
STARTCHAR 00B4
ENCODING 180
SWIDTH 270 0
DWIDTH 3 0
BBX 1 2 1 6
BITMAP
80
80
ENDCHAR
STARTCHAR 00B5
ENCODING 181
SWIDTH 540 0
DWIDTH 6 0
BBX 4 9 1 -3
BITMAP
90
90
90
90
90
F0
80
80
80
ENDCHAR
STARTCHAR 00B6
ENCODING 182
SWIDTH 630 0
DWIDTH 7 0
BBX 7 11 0 -3
BITMAP
7E
74
F4
74
34
14
14
14
14
14
14
ENDCHAR
STARTCHAR 00B7
ENCODING 183
SWIDTH 270 0
DWIDTH 3 0
BBX 1 2 1 2
BITMAP
80
80
ENDCHAR
STARTCHAR 00B8
ENCODING 184
SWIDTH 270 0
DWIDTH 3 0
BBX 2 3 1 -3
BITMAP
80
40
80
ENDCHAR
STARTCHAR 00B9
ENCODING 185
SWIDTH 270 0
DWIDTH 3 0
BBX 1 4 1 4
BITMAP
80
80
80
80
ENDCHAR
STARTCHAR 00BA
ENCODING 186
SWIDTH 450 0
DWIDTH 5 0
BBX 4 4 1 4
BITMAP
E0
90
90
E0
ENDCHAR
STARTCHAR 00BB
ENCODING 187
SWIDTH 450 0
DWIDTH 5 0
BBX 4 5 1 1
BITMAP
A0
A0
50
A0
A0
ENDCHAR
STARTCHAR 00BC
ENCODING 188
SWIDTH 810 0
DWIDTH 9 0
BBX 7 8 1 0
BITMAP
84
88
90
94
AC
2C
5E
84
ENDCHAR
STARTCHAR 00BD
ENCODING 189
SWIDTH 810 0
DWIDTH 9 0
BBX 7 8 1 0
BITMAP
84
88
90
94
AA
62
44
8E
ENDCHAR
STARTCHAR 00BE
ENCODING 190
SWIDTH 810 0
DWIDTH 9 0
BBX 8 8 1 0
BITMAP
E2
44
68
2A
D6
36
2F
42
ENDCHAR
STARTCHAR 00BF
ENCODING 191
SWIDTH 540 0
DWIDTH 6 0
BBX 5 9 0 -3
BITMAP
20
20
00
20
60
C0
88
C8
70
ENDCHAR
STARTCHAR 00C0
ENCODING 192
SWIDTH 720 0
DWIDTH 8 0
BBX 7 10 0 0
BITMAP
10
00
18
18
28
24
64
7E
42
82
ENDCHAR
STARTCHAR 00C1
ENCODING 193
SWIDTH 720 0
DWIDTH 8 0
BBX 7 10 0 0
BITMAP
08
00
18
18
28
24
64
7E
42
82
ENDCHAR
STARTCHAR 00C2
ENCODING 194
SWIDTH 720 0
DWIDTH 8 0
BBX 7 10 0 0
BITMAP
18
00
18
18
28
24
64
7E
42
82
ENDCHAR
STARTCHAR 00C3
ENCODING 195
SWIDTH 720 0
DWIDTH 8 0
BBX 7 10 0 0
BITMAP
34
28
18
18
28
24
64
7E
42
82
ENDCHAR
STARTCHAR 00C4
ENCODING 196
SWIDTH 720 0
DWIDTH 8 0
BBX 7 10 0 0
BITMAP
24
00
18
18
28
24
64
7E
42
82
ENDCHAR
STARTCHAR 00C5
ENCODING 197
SWIDTH 720 0
DWIDTH 8 0
BBX 7 10 0 0
BITMAP
18
28
18
18
28
24
64
7E
42
82
ENDCHAR
STARTCHAR 00C6
ENCODING 198
SWIDTH 990 0
DWIDTH 11 0
BBX 11 8 0 0
BITMAP
07E0
0E00
0A00
13C0
3200
3E00
4200
C3E0
ENDCHAR
STARTCHAR 00C7
ENCODING 199
SWIDTH 720 0
DWIDTH 8 0
BBX 7 11 1 -3
BITMAP
78
C4
82
80
80
82
C4
78
10
08
10
ENDCHAR
STARTCHAR 00C8
ENCODING 200
SWIDTH 540 0
DWIDTH 6 0
BBX 5 10 1 0
BITMAP
60
00
F8
80
80
80
F0
80
80
F8
ENDCHAR
STARTCHAR 00C9
ENCODING 201
SWIDTH 540 0
DWIDTH 6 0
BBX 5 10 1 0
BITMAP
20
00
F8
80
80
80
F0
80
80
F8
ENDCHAR
STARTCHAR 00CA
ENCODING 202
SWIDTH 540 0
DWIDTH 6 0
BBX 5 10 1 0
BITMAP
70
00
F8
80
80
80
F0
80
80
F8
ENDCHAR
STARTCHAR 00CB
ENCODING 203
SWIDTH 540 0
DWIDTH 6 0
BBX 5 10 1 0
BITMAP
D0
00
F8
80
80
80
F0
80
80
F8
ENDCHAR
STARTCHAR 00CC
ENCODING 204
SWIDTH 270 0
DWIDTH 3 0
BBX 2 10 0 0
BITMAP
80
00
40
40
40
40
40
40
40
40
ENDCHAR
STARTCHAR 00CD
ENCODING 205
SWIDTH 270 0
DWIDTH 3 0
BBX 2 10 1 0
BITMAP
40
00
80
80
80
80
80
80
80
80
ENDCHAR
STARTCHAR 00CE
ENCODING 206
SWIDTH 270 0
DWIDTH 3 0
BBX 3 10 0 0
BITMAP
E0
00
40
40
40
40
40
40
40
40
ENDCHAR
STARTCHAR 00CF
ENCODING 207
SWIDTH 270 0
DWIDTH 3 0
BBX 3 10 0 0
BITMAP
A0
00
40
40
40
40
40
40
40
40
ENDCHAR
STARTCHAR 00D0
ENCODING 208
SWIDTH 720 0
DWIDTH 8 0
BBX 8 8 0 0
BITMAP
7C
46
42
E3
42
42
46
7C
ENDCHAR
STARTCHAR 00D1
ENCODING 209
SWIDTH 720 0
DWIDTH 8 0
BBX 6 10 1 0
BITMAP
28
58
C4
C4
A4
B4
94
8C
8C
84
ENDCHAR
STARTCHAR 00D2
ENCODING 210
SWIDTH 810 0
DWIDTH 9 0
BBX 7 10 1 0
BITMAP
20
10
78
C6
82
82
82
82
C6
78
ENDCHAR
STARTCHAR 00D3
ENCODING 211
SWIDTH 810 0
DWIDTH 9 0
BBX 7 10 1 0
BITMAP
08
10
78
C6
82
82
82
82
C6
78
ENDCHAR
STARTCHAR 00D4
ENCODING 212
SWIDTH 810 0
DWIDTH 9 0
BBX 7 10 1 0
BITMAP
30
28
78
C6
82
82
82
82
C6
78
ENDCHAR
STARTCHAR 00D5
ENCODING 213
SWIDTH 810 0
DWIDTH 9 0
BBX 7 10 1 0
BITMAP
30
18
78
C6
82
82
82
82
C6
78
ENDCHAR
STARTCHAR 00D6
ENCODING 214
SWIDTH 810 0
DWIDTH 9 0
BBX 7 10 1 0
BITMAP
44
44
78
C6
82
82
82
82
C6
78
ENDCHAR
STARTCHAR 00D7
ENCODING 215
SWIDTH 540 0
DWIDTH 6 0
BBX 4 5 1 1
BITMAP
90
F0
60
F0
90
ENDCHAR
STARTCHAR 00D8
ENCODING 216
SWIDTH 810 0
DWIDTH 9 0
BBX 7 10 1 -1
BITMAP
02
7A
C6
8A
92
B2
A2
C6
F8
80
ENDCHAR
STARTCHAR 00D9
ENCODING 217
SWIDTH 630 0
DWIDTH 7 0
BBX 6 10 1 0
BITMAP
20
00
8C
8C
8C
8C
8C
8C
88
70
ENDCHAR
STARTCHAR 00DA
ENCODING 218
SWIDTH 630 0
DWIDTH 7 0
BBX 6 10 1 0
BITMAP
30
00
8C
8C
8C
8C
8C
8C
88
70
ENDCHAR
STARTCHAR 00DB
ENCODING 219
SWIDTH 630 0
DWIDTH 7 0
BBX 6 10 1 0
BITMAP
70
00
8C
8C
8C
8C
8C
8C
88
70
ENDCHAR
STARTCHAR 00DC
ENCODING 220
SWIDTH 630 0
DWIDTH 7 0
BBX 6 10 1 0
BITMAP
58
00
8C
8C
8C
8C
8C
8C
88
70
ENDCHAR
STARTCHAR 00DD
ENCODING 221
SWIDTH 630 0
DWIDTH 7 0
BBX 6 10 0 0
BITMAP
10
00
C4
44
28
38
10
10
10
10
ENDCHAR
STARTCHAR 00DE
ENCODING 222
SWIDTH 630 0
DWIDTH 7 0
BBX 5 8 1 0
BITMAP
80
80
F0
88
88
F0
80
80
ENDCHAR
STARTCHAR 00DF
ENCODING 223
SWIDTH 540 0
DWIDTH 6 0
BBX 5 8 1 0
BITMAP
70
98
98
B0
A0
98
C8
B8
ENDCHAR
STARTCHAR 00E0
ENCODING 224
SWIDTH 540 0
DWIDTH 6 0
BBX 4 8 1 0
BITMAP
40
00
E0
90
30
D0
90
F0
ENDCHAR
STARTCHAR 00E1
ENCODING 225
SWIDTH 540 0
DWIDTH 6 0
BBX 4 8 1 0
BITMAP
20
00
E0
90
30
D0
90
F0
ENDCHAR
STARTCHAR 00E2
ENCODING 226
SWIDTH 540 0
DWIDTH 6 0
BBX 4 8 1 0
BITMAP
60
00
E0
90
30
D0
90
F0
ENDCHAR
STARTCHAR 00E3
ENCODING 227
SWIDTH 540 0
DWIDTH 6 0
BBX 4 8 1 0
BITMAP
50
A0
E0
90
30
D0
90
F0
ENDCHAR
STARTCHAR 00E4
ENCODING 228
SWIDTH 540 0
DWIDTH 6 0
BBX 4 8 1 0
BITMAP
F0
00
E0
90
30
D0
90
F0
ENDCHAR
STARTCHAR 00E5
ENCODING 229
SWIDTH 540 0
DWIDTH 6 0
BBX 4 9 1 0
BITMAP
60
A0
60
E0
90
30
D0
90
F0
ENDCHAR
STARTCHAR 00E6
ENCODING 230
SWIDTH 900 0
DWIDTH 10 0
BBX 8 6 1 0
BITMAP
EE
91
7F
90
99
EE
ENDCHAR
STARTCHAR 00E7
ENCODING 231
SWIDTH 540 0
DWIDTH 6 0
BBX 5 9 0 -3
BITMAP
38
48
C0
C0
48
38
10
10
30
ENDCHAR
STARTCHAR 00E8
ENCODING 232
SWIDTH 540 0
DWIDTH 6 0
BBX 6 8 0 0
BITMAP
20
00
38
48
FC
40
48
38
ENDCHAR
STARTCHAR 00E9
ENCODING 233
SWIDTH 540 0
DWIDTH 6 0
BBX 6 8 0 0
BITMAP
10
00
38
48
FC
40
48
38
ENDCHAR
STARTCHAR 00EA
ENCODING 234
SWIDTH 540 0
DWIDTH 6 0
BBX 6 8 0 0
BITMAP
30
00
38
48
FC
40
48
38
ENDCHAR
STARTCHAR 00EB
ENCODING 235
SWIDTH 540 0
DWIDTH 6 0
BBX 6 8 0 0
BITMAP
78
00
38
48
FC
40
48
38
ENDCHAR
STARTCHAR 00EC
ENCODING 236
SWIDTH 270 0
DWIDTH 3 0
BBX 2 8 0 0
BITMAP
80
00
40
40
40
40
40
40
ENDCHAR
STARTCHAR 00ED
ENCODING 237
SWIDTH 270 0
DWIDTH 3 0
BBX 2 8 1 0
BITMAP
C0
00
80
80
80
80
80
80
ENDCHAR
STARTCHAR 00EE
ENCODING 238
SWIDTH 270 0
DWIDTH 3 0
BBX 3 8 0 0
BITMAP
E0
00
40
40
40
40
40
40
ENDCHAR
STARTCHAR 00EF
ENCODING 239
SWIDTH 270 0
DWIDTH 3 0
BBX 3 8 0 0
BITMAP
A0
00
40
40
40
40
40
40
ENDCHAR
STARTCHAR 00F0
ENCODING 240
SWIDTH 540 0
DWIDTH 6 0
BBX 6 8 0 0
BITMAP
28
10
28
7C
44
84
4C
78
ENDCHAR
STARTCHAR 00F1
ENCODING 241
SWIDTH 540 0
DWIDTH 6 0
BBX 4 8 1 0
BITMAP
50
30
F0
90
90
90
90
90
ENDCHAR
STARTCHAR 00F2
ENCODING 242
SWIDTH 540 0
DWIDTH 6 0
BBX 6 8 0 0
BITMAP
20
00
38
4C
C4
C4
4C
38
ENDCHAR
STARTCHAR 00F3
ENCODING 243
SWIDTH 540 0
DWIDTH 6 0
BBX 6 8 0 0
BITMAP
10
00
38
4C
C4
C4
4C
38
ENDCHAR
STARTCHAR 00F4
ENCODING 244
SWIDTH 540 0
DWIDTH 6 0
BBX 6 8 0 0
BITMAP
30
00
38
4C
C4
C4
4C
38
ENDCHAR
STARTCHAR 00F5
ENCODING 245
SWIDTH 540 0
DWIDTH 6 0
BBX 6 8 0 0
BITMAP
28
58
38
4C
C4
C4
4C
38
ENDCHAR
STARTCHAR 00F6
ENCODING 246
SWIDTH 540 0
DWIDTH 6 0
BBX 6 8 0 0
BITMAP
68
00
38
4C
C4
C4
4C
38
ENDCHAR
STARTCHAR 00F7
ENCODING 247
SWIDTH 540 0
DWIDTH 6 0
BBX 5 6 1 0
BITMAP
60
00
F8
00
20
20
ENDCHAR
STARTCHAR 00F8
ENCODING 248
SWIDTH 540 0
DWIDTH 6 0
BBX 6 6 0 0
BITMAP
3C
4C
D4
E4
6C
78
ENDCHAR
STARTCHAR 00F9
ENCODING 249
SWIDTH 540 0
DWIDTH 6 0
BBX 4 8 1 0
BITMAP
40
00
90
90
90
90
90
F0
ENDCHAR
STARTCHAR 00FA
ENCODING 250
SWIDTH 540 0
DWIDTH 6 0
BBX 4 8 1 0
BITMAP
20
00
90
90
90
90
90
F0
ENDCHAR
STARTCHAR 00FB
ENCODING 251
SWIDTH 540 0
DWIDTH 6 0
BBX 4 8 1 0
BITMAP
60
00
90
90
90
90
90
F0
ENDCHAR
STARTCHAR 00FC
ENCODING 252
SWIDTH 540 0
DWIDTH 6 0
BBX 4 8 1 0
BITMAP
F0
00
90
90
90
90
90
F0
ENDCHAR
STARTCHAR 00FD
ENCODING 253
SWIDTH 540 0
DWIDTH 6 0
BBX 5 11 0 -3
BITMAP
10
00
88
48
48
30
30
30
20
20
40
ENDCHAR
STARTCHAR 00FE
ENCODING 254
SWIDTH 630 0
DWIDTH 7 0
BBX 5 11 1 -3
BITMAP
80
80
F0
88
88
88
88
F0
80
80
80
ENDCHAR
STARTCHAR 00FF
ENCODING 255
SWIDTH 540 0
DWIDTH 6 0
BBX 5 11 0 -3
BITMAP
78
00
88
48
48
30
30
30
20
20
40
ENDCHAR
STARTCHAR 0131
ENCODING 305
SWIDTH 270 0
DWIDTH 3 0
BBX 1 6 1 0
BITMAP
80
80
80
80
80
80
ENDCHAR
STARTCHAR 0141
ENCODING 321
SWIDTH 540 0
DWIDTH 6 0
BBX 6 8 0 0
BITMAP
40
40
40
70
C0
40
40
7C
ENDCHAR
STARTCHAR 0142
ENCODING 322
SWIDTH 270 0
DWIDTH 3 0
BBX 3 8 0 0
BITMAP
40
40
40
60
C0
40
40
40
ENDCHAR
STARTCHAR 0152
ENCODING 338
SWIDTH 1170 0
DWIDTH 13 0
BBX 12 8 0 0
BITMAP
3DF0
4300
4100
C1F0
4100
4100
6300
1DF0
ENDCHAR
STARTCHAR 0153
ENCODING 339
SWIDTH 900 0
DWIDTH 10 0
BBX 10 6 0 0
BITMAP
3B80
4C40
C7C0
4400
4C40
3B80
ENDCHAR
STARTCHAR 0160
ENCODING 352
SWIDTH 630 0
DWIDTH 7 0
BBX 5 10 1 0
BITMAP
50
60
70
88
80
E0
38
08
88
70
ENDCHAR
STARTCHAR 0161
ENCODING 353
SWIDTH 450 0
DWIDTH 5 0
BBX 5 8 0 0
BITMAP
50
20
70
50
60
30
98
70
ENDCHAR
STARTCHAR 0178
ENCODING 376
SWIDTH 630 0
DWIDTH 7 0
BBX 6 10 0 0
BITMAP
68
00
C4
44
28
38
10
10
10
10
ENDCHAR
STARTCHAR 017D
ENCODING 381
SWIDTH 630 0
DWIDTH 7 0
BBX 7 10 0 0
BITMAP
28
10
7E
04
08
18
30
20
40
FE
ENDCHAR
STARTCHAR 017E
ENCODING 382
SWIDTH 450 0
DWIDTH 5 0
BBX 5 8 0 0
BITMAP
70
00
F8
10
30
20
40
F8
ENDCHAR
STARTCHAR 0192
ENCODING 402
SWIDTH 450 0
DWIDTH 5 0
BBX 5 11 0 -2
BITMAP
18
10
30
78
20
20
20
20
40
40
C0
ENDCHAR
STARTCHAR 02C6
ENCODING 710
SWIDTH 360 0
DWIDTH 4 0
BBX 3 2 1 6
BITMAP
C0
A0
ENDCHAR
STARTCHAR 02C7
ENCODING 711
SWIDTH 360 0
DWIDTH 4 0
BBX 3 2 1 6
BITMAP
A0
C0
ENDCHAR
STARTCHAR 02C9
ENCODING 713
SWIDTH 360 0
DWIDTH 4 0
BBX 3 1 0 7
BITMAP
E0
ENDCHAR
STARTCHAR 02D8
ENCODING 728
SWIDTH 360 0
DWIDTH 4 0
BBX 4 2 0 6
BITMAP
90
60
ENDCHAR
STARTCHAR 02D9
ENCODING 729
SWIDTH 180 0
DWIDTH 2 0
BBX 2 2 0 6
BITMAP
C0
C0
ENDCHAR
STARTCHAR 02DA
ENCODING 730
SWIDTH 270 0
DWIDTH 3 0
BBX 3 3 0 6
BITMAP
40
A0
60
ENDCHAR
STARTCHAR 02DB
ENCODING 731
SWIDTH 270 0
DWIDTH 3 0
BBX 2 2 0 -2
BITMAP
80
40
ENDCHAR
STARTCHAR 02DC
ENCODING 732
SWIDTH 360 0
DWIDTH 4 0
BBX 4 2 0 6
BITMAP
50
B0
ENDCHAR
STARTCHAR 02DD
ENCODING 733
SWIDTH 360 0
DWIDTH 4 0
BBX 3 2 0 6
BITMAP
60
A0
ENDCHAR
STARTCHAR 0394
ENCODING 916
SWIDTH 630 0
DWIDTH 7 0
BBX 7 8 0 0
BITMAP
10
18
28
2C
44
44
42
FE
ENDCHAR
STARTCHAR 03A9
ENCODING 937
SWIDTH 810 0
DWIDTH 9 0
BBX 8 8 0 0
BITMAP
3C
63
41
C1
41
41
36
77
ENDCHAR
STARTCHAR 03BC
ENCODING 956
SWIDTH 540 0
DWIDTH 6 0
BBX 4 9 1 -3
BITMAP
90
90
90
90
90
F0
80
80
80
ENDCHAR
STARTCHAR 03C0
ENCODING 960
SWIDTH 630 0
DWIDTH 7 0
BBX 6 6 0 0
BITMAP
FC
48
48
48
48
44
ENDCHAR
STARTCHAR 2007
ENCODING 8199
SWIDTH 630 0
DWIDTH 7 0
BBX 0 0 0 0
BITMAP
ENDCHAR
STARTCHAR 2008
ENCODING 8200
SWIDTH 270 0
DWIDTH 3 0
BBX 0 0 0 0
BITMAP
ENDCHAR
STARTCHAR 200B
ENCODING 8203
SWIDTH 0 0
DWIDTH 0 0
BBX 0 0 0 0
BITMAP
ENDCHAR
STARTCHAR 2013
ENCODING 8211
SWIDTH 630 0
DWIDTH 7 0
BBX 5 1 1 3
BITMAP
F8
ENDCHAR
STARTCHAR 2014
ENCODING 8212
SWIDTH 1080 0
DWIDTH 12 0
BBX 10 1 1 3
BITMAP
FFC0
ENDCHAR
STARTCHAR 2018
ENCODING 8216
SWIDTH 180 0
DWIDTH 2 0
BBX 2 3 0 5
BITMAP
40
80
40
ENDCHAR
STARTCHAR 2019
ENCODING 8217
SWIDTH 180 0
DWIDTH 2 0
BBX 2 3 0 5
BITMAP
C0
40
80
ENDCHAR
STARTCHAR 201A
ENCODING 8218
SWIDTH 180 0
DWIDTH 2 0
BBX 2 3 0 -2
BITMAP
C0
40
80
ENDCHAR
STARTCHAR 201C
ENCODING 8220
SWIDTH 360 0
DWIDTH 4 0
BBX 4 3 0 5
BITMAP
50
A0
70
ENDCHAR
STARTCHAR 201D
ENCODING 8221
SWIDTH 360 0
DWIDTH 4 0
BBX 4 3 0 5
BITMAP
F0
50
A0
ENDCHAR
STARTCHAR 201E
ENCODING 8222
SWIDTH 360 0
DWIDTH 4 0
BBX 4 3 0 -2
BITMAP
F0
50
A0
ENDCHAR
STARTCHAR 2020
ENCODING 8224
SWIDTH 360 0
DWIDTH 4 0
BBX 4 6 0 2
BITMAP
20
20
F0
20
20
20
ENDCHAR
STARTCHAR 2021
ENCODING 8225
SWIDTH 450 0
DWIDTH 5 0
BBX 4 8 0 0
BITMAP
20
20
F0
20
20
F0
20
20
ENDCHAR
STARTCHAR 2022
ENCODING 8226
SWIDTH 540 0
DWIDTH 6 0
BBX 4 5 1 1
BITMAP
60
F0
F0
F0
60
ENDCHAR
STARTCHAR 2026
ENCODING 8230
SWIDTH 900 0
DWIDTH 10 0
BBX 8 1 1 0
BITMAP
99
ENDCHAR
STARTCHAR 2030
ENCODING 8240
SWIDTH 1080 0
DWIDTH 12 0
BBX 10 8 1 0
BITMAP
E400
A400
A800
D000
1000
27C0
4940
47C0
ENDCHAR
STARTCHAR 2039
ENCODING 8249
SWIDTH 270 0
DWIDTH 3 0
BBX 3 5 0 1
BITMAP
20
40
80
40
20
ENDCHAR
STARTCHAR 203A
ENCODING 8250
SWIDTH 270 0
DWIDTH 3 0
BBX 2 5 1 1
BITMAP
80
80
40
80
80
ENDCHAR
STARTCHAR 2042
ENCODING 8258
SWIDTH 810 0
DWIDTH 9 0
BBX 7 8 1 0
BITMAP
10
38
28
00
00
44
E6
A6
ENDCHAR
STARTCHAR 2044
ENCODING 8260
SWIDTH 540 0
DWIDTH 6 0
BBX 6 8 0 0
BITMAP
04
08
08
10
20
20
40
80
ENDCHAR
STARTCHAR 2051
ENCODING 8273
SWIDTH 450 0
DWIDTH 5 0
BBX 4 8 0 0
BITMAP
20
F0
50
00
00
20
70
50
ENDCHAR
STARTCHAR 2070
ENCODING 8304
SWIDTH 450 0
DWIDTH 5 0
BBX 3 4 1 4
BITMAP
E0
A0
A0
E0
ENDCHAR
STARTCHAR 2074
ENCODING 8308
SWIDTH 450 0
DWIDTH 5 0
BBX 3 4 1 4
BITMAP
60
A0
E0
20
ENDCHAR
STARTCHAR 2075
ENCODING 8309
SWIDTH 360 0
DWIDTH 4 0
BBX 3 4 1 4
BITMAP
E0
C0
20
C0
ENDCHAR
STARTCHAR 2076
ENCODING 8310
SWIDTH 450 0
DWIDTH 5 0
BBX 3 4 1 4
BITMAP
E0
C0
A0
E0
ENDCHAR
STARTCHAR 2077
ENCODING 8311
SWIDTH 450 0
DWIDTH 5 0
BBX 3 4 1 4
BITMAP
E0
40
40
80
ENDCHAR
STARTCHAR 2078
ENCODING 8312
SWIDTH 450 0
DWIDTH 5 0
BBX 3 4 1 4
BITMAP
C0
A0
C0
E0
ENDCHAR
STARTCHAR 2079
ENCODING 8313
SWIDTH 450 0
DWIDTH 5 0
BBX 3 4 1 4
BITMAP
C0
A0
E0
C0
ENDCHAR
STARTCHAR 2080
ENCODING 8320
SWIDTH 450 0
DWIDTH 5 0
BBX 3 4 1 -1
BITMAP
E0
A0
A0
E0
ENDCHAR
STARTCHAR 2081
ENCODING 8321
SWIDTH 270 0
DWIDTH 3 0
BBX 1 5 1 -1
BITMAP
80
80
80
80
80
ENDCHAR
STARTCHAR 2082
ENCODING 8322
SWIDTH 360 0
DWIDTH 4 0
BBX 3 4 1 -1
BITMAP
C0
A0
C0
E0
ENDCHAR
STARTCHAR 2083
ENCODING 8323
SWIDTH 450 0
DWIDTH 5 0
BBX 3 4 1 -1
BITMAP
E0
40
20
E0
ENDCHAR
STARTCHAR 2084
ENCODING 8324
SWIDTH 450 0
DWIDTH 5 0
BBX 3 4 1 -1
BITMAP
60
A0
E0
20
ENDCHAR
STARTCHAR 2085
ENCODING 8325
SWIDTH 360 0
DWIDTH 4 0
BBX 3 5 1 -1
BITMAP
E0
80
E0
20
C0
ENDCHAR
STARTCHAR 2086
ENCODING 8326
SWIDTH 450 0
DWIDTH 5 0
BBX 3 5 1 -1
BITMAP
60
80
E0
A0
E0
ENDCHAR
STARTCHAR 2087
ENCODING 8327
SWIDTH 450 0
DWIDTH 5 0
BBX 3 4 1 -1
BITMAP
E0
40
40
80
ENDCHAR
STARTCHAR 2088
ENCODING 8328
SWIDTH 450 0
DWIDTH 5 0
BBX 3 4 1 -1
BITMAP
E0
C0
A0
E0
ENDCHAR
STARTCHAR 2089
ENCODING 8329
SWIDTH 450 0
DWIDTH 5 0
BBX 3 4 1 -1
BITMAP
C0
A0
E0
C0
ENDCHAR
STARTCHAR 20AC
ENCODING 8364
SWIDTH 720 0
DWIDTH 8 0
BBX 6 8 1 0
BITMAP
3C
40
F8
40
F0
40
60
3C
ENDCHAR
STARTCHAR 2113
ENCODING 8467
SWIDTH 450 0
DWIDTH 5 0
BBX 4 8 0 0
BITMAP
30
50
50
70
60
C0
40
30
ENDCHAR
STARTCHAR 2122
ENCODING 8482
SWIDTH 900 0
DWIDTH 10 0
BBX 9 4 0 4
BITMAP
FC80
4D80
4B80
4A80
ENDCHAR
STARTCHAR 2126
ENCODING 8486
SWIDTH 810 0
DWIDTH 9 0
BBX 8 8 0 0
BITMAP
3C
63
41
C1
41
41
36
77
ENDCHAR
STARTCHAR 2160
ENCODING 8544
SWIDTH 540 0
DWIDTH 6 0
BBX 4 8 1 0
BITMAP
F0
40
40
40
40
40
40
F0
ENDCHAR
STARTCHAR 2161
ENCODING 8545
SWIDTH 810 0
DWIDTH 9 0
BBX 7 8 1 0
BITMAP
FE
48
48
48
48
48
48
FE
ENDCHAR
STARTCHAR 2162
ENCODING 8546
SWIDTH 1080 0
DWIDTH 12 0
BBX 10 8 1 0
BITMAP
FFC0
4900
4900
4900
4900
4900
4900
FFC0
ENDCHAR
STARTCHAR 2163
ENCODING 8547
SWIDTH 990 0
DWIDTH 11 0
BBX 10 8 1 0
BITMAP
FFC0
5100
5900
4B00
4A00
4A00
4600
FFC0
ENDCHAR
STARTCHAR 2164
ENCODING 8548
SWIDTH 810 0
DWIDTH 9 0
BBX 7 8 1 0
BITMAP
FE
44
44
28
28
28
30
FE
ENDCHAR
STARTCHAR 2165
ENCODING 8549
SWIDTH 990 0
DWIDTH 11 0
BBX 10 8 1 0
BITMAP
FFC0
4500
4500
2900
2900
2900
3100
FFC0
ENDCHAR
STARTCHAR 2166
ENCODING 8550
SWIDTH 1260 0
DWIDTH 14 0
BBX 13 8 1 0
BITMAP
FFF8
4520
4520
2920
2920
2920
3120
FFF8
ENDCHAR
STARTCHAR 2167
ENCODING 8551
SWIDTH 1530 0
DWIDTH 17 0
BBX 16 8 1 0
BITMAP
FFFF
4524
4524
2924
2924
2924
3124
FFFF
ENDCHAR
STARTCHAR 2168
ENCODING 8552
SWIDTH 990 0
DWIDTH 11 0
BBX 9 8 1 0
BITMAP
FF80
5900
4A00
4600
4400
4A00
5B00
FF80
ENDCHAR
STARTCHAR 2169
ENCODING 8553
SWIDTH 810 0
DWIDTH 9 0
BBX 7 8 1 0
BITMAP
FE
48
28
30
30
38
48
FE
ENDCHAR
STARTCHAR 216C
ENCODING 8556
SWIDTH 630 0
DWIDTH 7 0
BBX 6 8 1 0
BITMAP
F0
40
40
40
40
44
44
FC
ENDCHAR
STARTCHAR 216D
ENCODING 8557
SWIDTH 720 0
DWIDTH 8 0
BBX 6 8 1 0
BITMAP
7C
C4
84
80
80
84
C4
7C
ENDCHAR
STARTCHAR 216E
ENCODING 8558
SWIDTH 720 0
DWIDTH 8 0
BBX 7 8 1 0
BITMAP
F8
44
44
46
46
44
44
F8
ENDCHAR
STARTCHAR 216F
ENCODING 8559
SWIDTH 1080 0
DWIDTH 12 0
BBX 10 8 1 0
BITMAP
E1C0
6180
6280
5280
5280
4C80
4C80
EDC0
ENDCHAR
STARTCHAR 2190
ENCODING 8592
SWIDTH 990 0
DWIDTH 11 0
BBX 11 4 0 1
BITMAP
4000
FFE0
4000
4000
ENDCHAR
STARTCHAR 2191
ENCODING 8593
SWIDTH 450 0
DWIDTH 5 0
BBX 4 11 1 -2
BITMAP
40
E0
F0
40
40
40
40
40
40
40
40
ENDCHAR
STARTCHAR 2192
ENCODING 8594
SWIDTH 990 0
DWIDTH 11 0
BBX 11 5 0 1
BITMAP
0080
00C0
FFE0
00C0
0080
ENDCHAR
STARTCHAR 2193
ENCODING 8595
SWIDTH 450 0
DWIDTH 5 0
BBX 4 11 0 -2
BITMAP
20
20
20
20
20
20
20
20
F0
70
20
ENDCHAR
STARTCHAR 2196
ENCODING 8598
SWIDTH 900 0
DWIDTH 10 0
BBX 7 8 1 0
BITMAP
C0
C0
E0
30
18
0C
06
02
ENDCHAR
STARTCHAR 2197
ENCODING 8599
SWIDTH 810 0
DWIDTH 9 0
BBX 7 8 0 0
BITMAP
06
06
0E
18
30
60
C0
80
ENDCHAR
STARTCHAR 2198
ENCODING 8600
SWIDTH 900 0
DWIDTH 10 0
BBX 8 8 1 0
BITMAP
80
C0
60
30
18
0D
07
07
ENDCHAR
STARTCHAR 2199
ENCODING 8601
SWIDTH 720 0
DWIDTH 8 0
BBX 8 8 0 0
BITMAP
01
03
06
0C
18
B0
E0
E0
ENDCHAR
STARTCHAR 21A9
ENCODING 8617
SWIDTH 810 0
DWIDTH 9 0
BBX 9 6 0 1
BITMAP
0F00
0080
0080
4080
FF00
4000
ENDCHAR
STARTCHAR 21B0
ENCODING 8624
SWIDTH 810 0
DWIDTH 9 0
BBX 7 7 1 1
BITMAP
40
FE
42
02
02
02
02
ENDCHAR
STARTCHAR 21B1
ENCODING 8625
SWIDTH 720 0
DWIDTH 8 0
BBX 8 7 0 1
BITMAP
02
FF
82
80
80
80
80
ENDCHAR
STARTCHAR 21B2
ENCODING 8626
SWIDTH 720 0
DWIDTH 8 0
BBX 7 8 0 0
BITMAP
02
02
02
02
42
FE
40
40
ENDCHAR
STARTCHAR 21B3
ENCODING 8627
SWIDTH 810 0
DWIDTH 9 0
BBX 7 8 1 0
BITMAP
80
80
80
80
84
FE
06
04
ENDCHAR
STARTCHAR 21B4
ENCODING 8628
SWIDTH 810 0
DWIDTH 9 0
BBX 7 8 1 0
BITMAP
FC
04
04
04
04
04
0E
04
ENDCHAR
STARTCHAR 21C6
ENCODING 8646
SWIDTH 1080 0
DWIDTH 12 0
BBX 11 8 1 0
BITMAP
4000
FFC0
4000
4000
0080
00C0
FFE0
0080
ENDCHAR
STARTCHAR 2202
ENCODING 8706
SWIDTH 630 0
DWIDTH 7 0
BBX 5 8 1 0
BITMAP
F0
18
08
78
88
88
88
70
ENDCHAR
STARTCHAR 2206
ENCODING 8710
SWIDTH 630 0
DWIDTH 7 0
BBX 7 8 0 0
BITMAP
10
18
28
2C
44
44
42
FE
ENDCHAR
STARTCHAR 220F
ENCODING 8719
SWIDTH 720 0
DWIDTH 8 0
BBX 6 8 1 0
BITMAP
FC
84
84
84
84
84
84
84
ENDCHAR
STARTCHAR 2211
ENCODING 8721
SWIDTH 540 0
DWIDTH 6 0
BBX 6 8 0 0
BITMAP
FC
40
20
10
10
20
40
FC
ENDCHAR
STARTCHAR 2212
ENCODING 8722
SWIDTH 540 0
DWIDTH 6 0
BBX 4 1 1 3
BITMAP
F0
ENDCHAR
STARTCHAR 2215
ENCODING 8725
SWIDTH 360 0
DWIDTH 4 0
BBX 4 8 0 0
BITMAP
10
10
20
20
20
40
40
80
ENDCHAR
STARTCHAR 2219
ENCODING 8729
SWIDTH 270 0
DWIDTH 3 0
BBX 1 2 1 2
BITMAP
80
80
ENDCHAR
STARTCHAR 221A
ENCODING 8730
SWIDTH 630 0
DWIDTH 7 0
BBX 7 10 1 0
BITMAP
0E
08
08
18
90
90
90
60
60
60
ENDCHAR
STARTCHAR 221E
ENCODING 8734
SWIDTH 810 0
DWIDTH 9 0
BBX 7 4 1 1
BITMAP
EE
B2
B2
EE
ENDCHAR
STARTCHAR 222B
ENCODING 8747
SWIDTH 270 0
DWIDTH 3 0
BBX 3 11 0 -3
BITMAP
20
40
40
40
40
40
40
40
40
40
C0
ENDCHAR
STARTCHAR 2248
ENCODING 8776
SWIDTH 540 0
DWIDTH 6 0
BBX 4 4 1 1
BITMAP
C0
30
00
F0
ENDCHAR
STARTCHAR 2260
ENCODING 8800
SWIDTH 630 0
DWIDTH 7 0
BBX 5 5 1 1
BITMAP
10
F8
20
F8
80
ENDCHAR
STARTCHAR 2264
ENCODING 8804
SWIDTH 540 0
DWIDTH 6 0
BBX 4 5 1 1
BITMAP
10
E0
E0
10
F0
ENDCHAR
STARTCHAR 2265
ENCODING 8805
SWIDTH 540 0
DWIDTH 6 0
BBX 4 5 1 1
BITMAP
80
70
70
80
F0
ENDCHAR
STARTCHAR 22C5
ENCODING 8901
SWIDTH 270 0
DWIDTH 3 0
BBX 1 2 1 2
BITMAP
80
80
ENDCHAR
STARTCHAR 24C5
ENCODING 9413
SWIDTH 810 0
DWIDTH 9 0
BBX 9 8 0 0
BITMAP
1C00
6300
5D00
9480
9C80
5100
4100
3E00
ENDCHAR
STARTCHAR 25A0
ENCODING 9632
SWIDTH 900 0
DWIDTH 10 0
BBX 8 8 1 0
BITMAP
FF
FF
FF
FF
FF
FF
FF
FF
ENDCHAR
STARTCHAR 25A1
ENCODING 9633
SWIDTH 900 0
DWIDTH 10 0
BBX 8 8 1 0
BITMAP
FF
81
81
81
81
81
81
FF
ENDCHAR
STARTCHAR 25B2
ENCODING 9650
SWIDTH 810 0
DWIDTH 9 0
BBX 9 8 0 0
BITMAP
0800
0C00
1C00
1E00
3E00
7F00
7F00
FF80
ENDCHAR
STARTCHAR 25B3
ENCODING 9651
SWIDTH 810 0
DWIDTH 9 0
BBX 9 8 0 0
BITMAP
0800
0C00
1400
1200
2200
6100
4100
FF80
ENDCHAR
STARTCHAR 25CA
ENCODING 9674
SWIDTH 540 0
DWIDTH 6 0
BBX 5 8 1 0
BITMAP
60
60
90
90
98
90
60
60
ENDCHAR
STARTCHAR 25CB
ENCODING 9675
SWIDTH 810 0
DWIDTH 9 0
BBX 9 8 0 0
BITMAP
1E00
6100
4100
8080
8080
4100
6100
1E00
ENDCHAR
STARTCHAR 25CF
ENCODING 9679
SWIDTH 810 0
DWIDTH 9 0
BBX 8 8 1 0
BITMAP
3C
FE
FE
FF
FF
FE
FE
3C
ENDCHAR
STARTCHAR 262E
ENCODING 9774
SWIDTH 810 0
DWIDTH 9 0
BBX 9 8 0 0
BITMAP
1E00
6900
4900
8880
9C80
6B00
4900
3E00
ENDCHAR
STARTCHAR 2713
ENCODING 10003
SWIDTH 990 0
DWIDTH 11 0
BBX 10 8 0 0
BITMAP
0040
00C0
0180
0300
8200
4400
2800
1000
ENDCHAR
STARTCHAR 2715
ENCODING 10005
SWIDTH 720 0
DWIDTH 8 0
BBX 8 8 0 0
BITMAP
81
42
24
18
18
24
42
81
ENDCHAR
STARTCHAR 2780
ENCODING 10112
SWIDTH 810 0
DWIDTH 9 0
BBX 9 8 0 0
BITMAP
1C00
6300
4900
9880
8880
4900
4100
3E00
ENDCHAR
STARTCHAR 2781
ENCODING 10113
SWIDTH 810 0
DWIDTH 9 0
BBX 9 8 0 0
BITMAP
1C00
6300
5D00
9480
8880
5D00
4100
3E00
ENDCHAR
STARTCHAR 2782
ENCODING 10114
SWIDTH 810 0
DWIDTH 9 0
BBX 9 8 0 0
BITMAP
1E00
6100
5D00
8880
8480
5D00
6100
1E00
ENDCHAR
STARTCHAR 2783
ENCODING 10115
SWIDTH 810 0
DWIDTH 9 0
BBX 9 8 0 0
BITMAP
1E00
6100
4D00
9480
9C80
4500
6100
1E00
ENDCHAR
STARTCHAR 2784
ENCODING 10116
SWIDTH 810 0
DWIDTH 9 0
BBX 9 8 0 0
BITMAP
1E00
6100
5D00
9880
8480
5D00
6100
1E00
ENDCHAR
STARTCHAR 2785
ENCODING 10117
SWIDTH 810 0
DWIDTH 9 0
BBX 9 8 0 0
BITMAP
1C00
6300
5D00
9880
9480
5D00
6100
1E00
ENDCHAR
STARTCHAR 2786
ENCODING 10118
SWIDTH 810 0
DWIDTH 9 0
BBX 9 8 0 0
BITMAP
1E00
6100
5D00
8880
8880
4900
6100
1E00
ENDCHAR
STARTCHAR 2787
ENCODING 10119
SWIDTH 810 0
DWIDTH 9 0
BBX 9 8 0 0
BITMAP
1E00
6100
5D00
9C80
9480
5D00
6100
1E00
ENDCHAR
STARTCHAR 2788
ENCODING 10120
SWIDTH 810 0
DWIDTH 9 0
BBX 9 8 0 0
BITMAP
1C00
6300
5D00
9480
8C80
5D00
6100
1E00
ENDCHAR
STARTCHAR E000
ENCODING 57344
SWIDTH 810 0
DWIDTH 9 0
BBX 7 8 1 0
BITMAP
7E
40
40
40
40
40
E0
40
ENDCHAR
STARTCHAR E001
ENCODING 57345
SWIDTH 1080 0
DWIDTH 12 0
BBX 10 8 1 0
BITMAP
1E00
2000
4080
41C0
E080
4080
0100
1E00
ENDCHAR
STARTCHAR E002
ENCODING 57346
SWIDTH 990 0
DWIDTH 11 0
BBX 9 8 1 0
BITMAP
3C00
C000
8100
8380
8100
8200
C200
3C00
ENDCHAR
STARTCHAR FB00
ENCODING 64256
SWIDTH 630 0
DWIDTH 7 0
BBX 7 9 0 0
BITMAP
36
44
44
FE
44
44
44
44
44
ENDCHAR
STARTCHAR FB01
ENCODING 64257
SWIDTH 630 0
DWIDTH 7 0
BBX 6 9 0 0
BITMAP
34
40
40
FC
44
44
44
44
44
ENDCHAR
STARTCHAR FB02
ENCODING 64258
SWIDTH 630 0
DWIDTH 7 0
BBX 6 8 0 0
BITMAP
34
44
FC
44
44
44
44
44
ENDCHAR
STARTCHAR FB03
ENCODING 64259
SWIDTH 900 0
DWIDTH 10 0
BBX 10 9 0 0
BITMAP
36C0
4400
4400
FF80
4480
4480
4480
4480
4480
ENDCHAR
STARTCHAR FB04
ENCODING 64260
SWIDTH 900 0
DWIDTH 10 0
BBX 9 8 0 0
BITMAP
3680
4480
FF80
4480
4480
4480
4480
4480
ENDCHAR
STARTCHAR FEFF
ENCODING 65279
SWIDTH 0 0
DWIDTH 0 0
BBX 0 0 0 0
BITMAP
ENDCHAR
ENDFONT
